<svg id="Capa_1" enable-background="new 0 0 512 512" height="512" viewBox="0 0 512 512" width="512" xmlns="http://www.w3.org/2000/svg"><g><path d="m35.369 133.686h97.911c4.143 0 7.5-3.357 7.5-7.5s-3.357-7.5-7.5-7.5h-97.911c-4.143 0-7.5 3.357-7.5 7.5s3.358 7.5 7.5 7.5z"/><path d="m133.28 147.85h-61.56c-4.143 0-7.5 3.357-7.5 7.5s3.357 7.5 7.5 7.5h61.561c4.143 0 7.5-3.357 7.5-7.5s-3.358-7.5-7.501-7.5z"/><path d="m35.369 162.85h14.679c4.143 0 7.5-3.357 7.5-7.5s-3.357-7.5-7.5-7.5h-14.679c-4.143 0-7.5 3.357-7.5 7.5s3.358 7.5 7.5 7.5z"/><path d="m35.369 190.692h97.911c4.143 0 7.5-3.357 7.5-7.5s-3.357-7.5-7.5-7.5h-97.911c-4.143 0-7.5 3.357-7.5 7.5s3.358 7.5 7.5 7.5z"/><path d="m133.28 204.856h-61.56c-4.143 0-7.5 3.357-7.5 7.5s3.357 7.5 7.5 7.5h61.561c4.143 0 7.5-3.357 7.5-7.5s-3.358-7.5-7.501-7.5z"/><path d="m35.369 219.856h14.679c4.143 0 7.5-3.357 7.5-7.5s-3.357-7.5-7.5-7.5h-14.679c-4.143 0-7.5 3.357-7.5 7.5s3.358 7.5 7.5 7.5z"/><path d="m35.369 247.698h97.911c4.143 0 7.5-3.357 7.5-7.5s-3.357-7.5-7.5-7.5h-97.911c-4.143 0-7.5 3.357-7.5 7.5s3.358 7.5 7.5 7.5z"/><path d="m133.28 261.862h-61.56c-4.143 0-7.5 3.357-7.5 7.5s3.357 7.5 7.5 7.5h61.561c4.143 0 7.5-3.357 7.5-7.5s-3.358-7.5-7.501-7.5z"/><path d="m35.369 276.862h14.679c4.143 0 7.5-3.357 7.5-7.5s-3.357-7.5-7.5-7.5h-14.679c-4.143 0-7.5 3.357-7.5 7.5s3.358 7.5 7.5 7.5z"/><path d="m50.048 345.654h-14.679c-4.143 0-7.5 3.357-7.5 7.5s3.357 7.5 7.5 7.5h14.679c4.143 0 7.5-3.357 7.5-7.5s-3.358-7.5-7.5-7.5z"/><path d="m133.28 345.654h-61.56c-4.143 0-7.5 3.357-7.5 7.5s3.357 7.5 7.5 7.5h61.561c4.143 0 7.5-3.357 7.5-7.5s-3.358-7.5-7.501-7.5z"/><path d="m133.28 371.457h-61.56c-4.143 0-7.5 3.357-7.5 7.5s3.357 7.5 7.5 7.5h61.561c4.143 0 7.5-3.357 7.5-7.5s-3.358-7.5-7.501-7.5z"/><path d="m133.28 397.26h-61.56c-4.143 0-7.5 3.357-7.5 7.5s3.357 7.5 7.5 7.5h61.561c4.143 0 7.5-3.357 7.5-7.5s-3.358-7.5-7.501-7.5z"/><path d="m133.28 423.063h-61.56c-4.143 0-7.5 3.357-7.5 7.5s3.357 7.5 7.5 7.5h61.561c4.143 0 7.5-3.357 7.5-7.5s-3.358-7.5-7.501-7.5z"/><path d="m268.236 137.729c0-20.913-17.014-37.928-37.927-37.928s-37.928 17.015-37.928 37.928 17.015 37.927 37.928 37.927 37.927-17.014 37.927-37.927zm-60.854 0c0-12.643 10.285-22.928 22.928-22.928 12.642 0 22.927 10.285 22.927 22.928 0 12.642-10.285 22.927-22.927 22.927-12.643 0-22.928-10.285-22.928-22.927z"/><path d="m198.725 198.103h-14.47c-4.143 0-7.5 3.357-7.5 7.5s3.357 7.5 7.5 7.5h14.47c4.143 0 7.5-3.357 7.5-7.5s-3.358-7.5-7.5-7.5z"/><path d="m276.363 198.103h-54.446c-4.143 0-7.5 3.357-7.5 7.5s3.357 7.5 7.5 7.5h54.446c4.143 0 7.5-3.357 7.5-7.5s-3.357-7.5-7.5-7.5z"/><path d="m198.725 225.973h-14.47c-4.143 0-7.5 3.357-7.5 7.5s3.357 7.5 7.5 7.5h14.47c4.143 0 7.5-3.357 7.5-7.5s-3.358-7.5-7.5-7.5z"/><path d="m276.363 225.973h-54.446c-4.143 0-7.5 3.357-7.5 7.5s3.357 7.5 7.5 7.5h54.446c4.143 0 7.5-3.357 7.5-7.5s-3.357-7.5-7.5-7.5z"/><path d="m198.725 253.843h-14.47c-4.143 0-7.5 3.357-7.5 7.5s3.357 7.5 7.5 7.5h14.47c4.143 0 7.5-3.357 7.5-7.5s-3.358-7.5-7.5-7.5z"/><path d="m276.363 253.843h-54.446c-4.143 0-7.5 3.357-7.5 7.5s3.357 7.5 7.5 7.5h54.446c4.143 0 7.5-3.357 7.5-7.5s-3.357-7.5-7.5-7.5z"/><path d="m198.725 281.713h-14.47c-4.143 0-7.5 3.357-7.5 7.5s3.357 7.5 7.5 7.5h14.47c4.143 0 7.5-3.357 7.5-7.5s-3.358-7.5-7.5-7.5z"/><path d="m276.363 281.713h-54.446c-4.143 0-7.5 3.357-7.5 7.5s3.357 7.5 7.5 7.5h54.446c4.143 0 7.5-3.357 7.5-7.5s-3.357-7.5-7.5-7.5z"/><path d="m198.725 309.583h-14.47c-4.143 0-7.5 3.357-7.5 7.5s3.357 7.5 7.5 7.5h14.47c4.143 0 7.5-3.357 7.5-7.5s-3.358-7.5-7.5-7.5z"/><path d="m276.363 309.583h-54.446c-4.143 0-7.5 3.357-7.5 7.5s3.357 7.5 7.5 7.5h54.446c4.143 0 7.5-3.357 7.5-7.5s-3.357-7.5-7.5-7.5z"/><path d="m198.725 337.454h-14.47c-4.143 0-7.5 3.357-7.5 7.5s3.357 7.5 7.5 7.5h14.47c4.143 0 7.5-3.357 7.5-7.5s-3.358-7.5-7.5-7.5z"/><path d="m276.363 337.454h-54.446c-4.143 0-7.5 3.357-7.5 7.5s3.357 7.5 7.5 7.5h54.446c4.143 0 7.5-3.357 7.5-7.5s-3.357-7.5-7.5-7.5z"/><path d="m198.725 365.323h-14.47c-4.143 0-7.5 3.357-7.5 7.5s3.357 7.5 7.5 7.5h14.47c4.143 0 7.5-3.357 7.5-7.5s-3.358-7.5-7.5-7.5z"/><path d="m276.363 365.323h-54.446c-4.143 0-7.5 3.357-7.5 7.5s3.357 7.5 7.5 7.5h54.446c4.143 0 7.5-3.357 7.5-7.5s-3.357-7.5-7.5-7.5z"/><path d="m198.725 393.193h-14.47c-4.143 0-7.5 3.357-7.5 7.5s3.357 7.5 7.5 7.5h14.47c4.143 0 7.5-3.357 7.5-7.5s-3.358-7.5-7.5-7.5z"/><path d="m276.363 393.193h-54.446c-4.143 0-7.5 3.357-7.5 7.5s3.357 7.5 7.5 7.5h54.446c4.143 0 7.5-3.357 7.5-7.5s-3.357-7.5-7.5-7.5z"/><path d="m198.725 421.063h-14.47c-4.143 0-7.5 3.357-7.5 7.5s3.357 7.5 7.5 7.5h14.47c4.143 0 7.5-3.357 7.5-7.5s-3.358-7.5-7.5-7.5z"/><path d="m276.363 421.063h-54.446c-4.143 0-7.5 3.357-7.5 7.5s3.357 7.5 7.5 7.5h54.446c4.143 0 7.5-3.357 7.5-7.5s-3.357-7.5-7.5-7.5z"/><path d="m353.599 274.043c0 20.765 16.893 37.657 37.656 37.657 4.276 0 8.501-.727 12.495-2.131l7.547 12.628c2.129 3.562 6.738 4.71 10.285 2.59 17.758-10.612 28.789-30.057 28.789-50.744 0-32.597-26.52-59.116-59.116-59.116-4.143 0-7.5 3.357-7.5 7.5v14.71c-17.183 3.487-30.156 18.71-30.156 36.906zm45.156-43.478c20.765 3.572 36.616 21.709 36.616 43.479 0 12.904-5.753 25.162-15.38 33.463l-21.236-35.533zm-15 22.098v21.381c0 1.354.367 2.685 1.062 3.848l10.968 18.354c-1.483.302-3.001.456-4.53.456-12.493 0-22.656-10.164-22.656-22.657 0-9.867 6.339-18.28 15.156-21.382z"/><path d="m408.911 377.119 18.661-18.661c2.929-2.93 2.929-7.678 0-10.607-2.93-2.928-7.678-2.928-10.607 0l-16.464 16.465h-66.972c-4.143 0-7.5 3.357-7.5 7.5s3.357 7.5 7.5 7.5h70.078c1.99-.001 3.897-.791 5.304-2.197z"/><path d="m342.521 414.546h-8.991c-4.143 0-7.5 3.357-7.5 7.5s3.357 7.5 7.5 7.5h8.991c4.143 0 7.5-3.357 7.5-7.5s-3.358-7.5-7.5-7.5z"/><path d="m391.44 414.546h-27.362c-4.143 0-7.5 3.357-7.5 7.5s3.357 7.5 7.5 7.5h27.362c4.143 0 7.5-3.357 7.5-7.5s-3.357-7.5-7.5-7.5z"/><path d="m342.521 390.29h-8.991c-4.143 0-7.5 3.357-7.5 7.5s3.357 7.5 7.5 7.5h8.991c4.143 0 7.5-3.357 7.5-7.5s-3.358-7.5-7.5-7.5z"/><path d="m391.44 390.29h-27.362c-4.143 0-7.5 3.357-7.5 7.5s3.357 7.5 7.5 7.5h27.362c4.143 0 7.5-3.357 7.5-7.5s-3.357-7.5-7.5-7.5z"/><path d="m395.059 159.227-18.661 18.661c-2.929 2.93-2.929 7.678 0 10.607 1.465 1.464 3.385 2.196 5.304 2.196s3.839-.732 5.304-2.196l16.464-16.465h66.972c4.143 0 7.5-3.357 7.5-7.5s-3.357-7.5-7.5-7.5h-70.078c-1.991.001-3.898.791-5.305 2.197z"/><path d="m461.449 121.799h8.991c4.143 0 7.5-3.357 7.5-7.5s-3.357-7.5-7.5-7.5h-8.991c-4.143 0-7.5 3.357-7.5 7.5s3.358 7.5 7.5 7.5z"/><path d="m412.529 121.799h27.362c4.143 0 7.5-3.357 7.5-7.5s-3.357-7.5-7.5-7.5h-27.362c-4.143 0-7.5 3.357-7.5 7.5s3.358 7.5 7.5 7.5z"/><path d="m461.449 146.056h8.991c4.143 0 7.5-3.357 7.5-7.5s-3.357-7.5-7.5-7.5h-8.991c-4.143 0-7.5 3.357-7.5 7.5s3.358 7.5 7.5 7.5z"/><path d="m412.529 146.056h27.362c4.143 0 7.5-3.357 7.5-7.5s-3.357-7.5-7.5-7.5h-27.362c-4.143 0-7.5 3.357-7.5 7.5s3.358 7.5 7.5 7.5z"/><path d="m504.5 68.804h-6.76l-15.109-21.432c-3.241-4.6-8.536-7.346-14.163-7.346h-73.225c-4.143 0-7.5 3.357-7.5 7.5s3.357 7.5 7.5 7.5h73.225c.756 0 1.466.369 1.902.987l9.017 12.79h-446.775l9.017-12.79c.436-.618 1.147-.987 1.903-.987h321.725c4.143 0 7.5-3.357 7.5-7.5s-3.357-7.5-7.5-7.5h-321.725c-5.626 0-10.921 2.745-14.163 7.345l-15.109 21.433h-6.76c-4.143 0-7.5 3.357-7.5 7.5v388.169c0 4.143 3.357 7.5 7.5 7.5h394.569c4.143 0 7.5-3.357 7.5-7.5s-3.357-7.5-7.5-7.5h-95.101v-303.424c0-4.143-3.357-7.5-7.5-7.5s-7.5 3.357-7.5 7.5v303.424h-123.319v-373.169h123.319v39.758c0 4.143 3.357 7.5 7.5 7.5s7.5-3.357 7.5-7.5v-39.758h190.032v373.169h-64.943c-4.143 0-7.5 3.357-7.5 7.5s3.357 7.5 7.5 7.5h72.443c4.143 0 7.5-3.357 7.5-7.5v-388.169c0-4.142-3.357-7.5-7.5-7.5zm-489.5 388.169v-130.229h138.649v130.229zm138.649-145.229h-138.649v-227.94h138.649z"/></g></svg>